<svg width="40" height="41" viewBox="0 0 40 41" fill="none" xmlns="http://www.w3.org/2000/svg">
<path d="M36.6177 20.8561C36.6177 26.3728 32.1344 30.8561 26.6177 30.8561C25.3769 30.8561 24.1832 30.63 23.0862 30.213C22.555 30.011 22.456 29.3313 22.8257 28.8998C24.729 26.6791 25.7844 23.8328 25.7844 20.8561C25.7844 17.8698 24.7197 15.0133 22.8309 12.8139C22.4597 12.3819 22.558 11.6998 23.0905 11.4977C24.1862 11.0818 25.3785 10.8561 26.6177 10.8561C32.1344 10.8561 36.6177 15.3395 36.6177 20.8561Z" fill="#6E6F7C"/>
<path d="M23.2844 20.8561C23.2844 23.8061 22.0011 26.4728 19.9511 28.2895C18.1844 29.8895 15.8511 30.8561 13.2844 30.8561C7.76776 30.8561 3.28442 26.3728 3.28442 20.8561C3.28442 15.3395 7.76776 10.8561 13.2844 10.8561C15.8511 10.8561 18.1844 11.8228 19.9511 13.4228C22.0011 15.2395 23.2844 17.9061 23.2844 20.8561Z" fill="#6E6F7C"/>
</svg>
