<svg width="40" height="41" viewBox="0 0 40 41" fill="none" xmlns="http://www.w3.org/2000/svg">
<path fill-rule="evenodd" clip-rule="evenodd" d="M19.1162 4.13894C19.6044 3.65079 20.3957 3.65079 20.8839 4.13894L26.7172 9.97227C27.2054 10.4604 27.2054 11.2519 26.7172 11.74L20.8839 17.5733C20.3957 18.0615 19.6044 18.0615 19.1162 17.5733L13.2829 11.74C12.7947 11.2519 12.7947 10.4604 13.2829 9.97227L19.1162 4.13894ZM15.9345 10.8562L20.0001 14.9217L24.0656 10.8562L20.0001 6.79059L15.9345 10.8562Z" fill="#6E6F7C"/>
<path fill-rule="evenodd" clip-rule="evenodd" d="M19.1162 24.139C19.6044 23.6508 20.3957 23.6508 20.8839 24.139L26.7172 29.9723C27.2054 30.4605 27.2054 31.2518 26.7172 31.74L20.8839 37.5733C20.3957 38.0615 19.6044 38.0615 19.1162 37.5733L13.2829 31.74C12.7947 31.2518 12.7947 30.4605 13.2829 29.9723L19.1162 24.139ZM15.9345 30.8562L20.0001 34.9217L24.0656 30.8562L20.0001 26.7907L15.9345 30.8562Z" fill="#6E6F7C"/>
<path fill-rule="evenodd" clip-rule="evenodd" d="M29.1162 14.1389C29.6044 13.6508 30.3957 13.6508 30.8839 14.1389L36.7172 19.9723C37.2054 20.4605 37.2054 21.2518 36.7172 21.74L30.8839 27.5733C30.3957 28.0615 29.6044 28.0615 29.1162 27.5733L23.2829 21.74C22.7947 21.2518 22.7947 20.4605 23.2829 19.9723L29.1162 14.1389ZM25.9345 20.8562L30 24.9217L34.0655 20.8562L30 16.7906L25.9345 20.8562Z" fill="#6E6F7C"/>
<path fill-rule="evenodd" clip-rule="evenodd" d="M9.11619 14.1389C9.60434 13.6508 10.3958 13.6508 10.884 14.1389L16.7172 19.9723C17.2054 20.4605 17.2054 21.2518 16.7172 21.74L10.884 27.5733C10.3958 28.0615 9.60434 28.0615 9.11619 27.5733L3.28286 21.74C2.79471 21.2518 2.79471 20.4605 3.28286 19.9723L9.11619 14.1389ZM5.93451 20.8562L10.0001 24.9217L14.0656 20.8562L10.0001 16.7906L5.93451 20.8562Z" fill="#6E6F7C"/>
</svg>
