<svg width="40" height="41" viewBox="0 0 40 41" fill="none" xmlns="http://www.w3.org/2000/svg">
<g clip-path="url(#clip0_105_1747)">
<path d="M10.5469 29.1374H1.17188C0.524687 29.1374 0 29.6621 0 30.3093V39.6843C0 40.3315 0.524687 40.8561 1.17188 40.8561H10.5469C11.1941 40.8561 11.7188 40.3315 11.7188 39.6843V30.3093C11.7188 29.6621 11.1941 29.1374 10.5469 29.1374Z" fill="#6E6F7C"/>
<path d="M7.03125 26.7936V23.5905H18.8281V26.7936H21.1719V23.5905H32.9688V26.7936H35.3125V22.4186C35.3125 21.7715 34.7878 21.2468 34.1406 21.2468H21.1719V18.0436H18.8281V21.2468H5.85938C5.21219 21.2468 4.6875 21.7715 4.6875 22.4186V26.7936H7.03125Z" fill="#6E6F7C"/>
<path d="M13.75 15.6999H26.25C26.8972 15.6999 27.4219 15.1752 27.4219 14.528V2.02802C27.4219 1.38083 26.8972 0.85614 26.25 0.85614H13.75C13.1028 0.85614 12.5781 1.38083 12.5781 2.02802V14.528C12.5781 15.1752 13.1028 15.6999 13.75 15.6999Z" fill="#6E6F7C"/>
<path d="M24.6875 29.1374H15.3125C14.6653 29.1374 14.1406 29.6621 14.1406 30.3093V39.6843C14.1406 40.3315 14.6653 40.8561 15.3125 40.8561H24.6875C25.3347 40.8561 25.8594 40.3315 25.8594 39.6843V30.3093C25.8594 29.6621 25.3347 29.1374 24.6875 29.1374Z" fill="#6E6F7C"/>
<path d="M38.8281 29.1374H29.4531C28.8059 29.1374 28.2812 29.6621 28.2812 30.3093V39.6843C28.2812 40.3315 28.8059 40.8561 29.4531 40.8561H38.8281C39.4753 40.8561 40 40.3315 40 39.6843V30.3093C40 29.6621 39.4753 29.1374 38.8281 29.1374Z" fill="#6E6F7C"/>
</g>
<defs>
<clipPath id="clip0_105_1747">
<rect width="40" height="40" fill="white" transform="translate(0 0.85614)"/>
</clipPath>
</defs>
</svg>
