<svg width="40" height="41" viewBox="0 0 40 41" fill="none" xmlns="http://www.w3.org/2000/svg">
<path d="M12.5 26.6895H4.16667C3.72464 26.6895 3.30072 26.865 2.98816 27.1776C2.67559 27.4902 2.5 27.9141 2.5 28.3561V36.6895C2.5 37.1315 2.67559 37.5554 2.98816 37.868C3.30072 38.1805 3.72464 38.3561 4.16667 38.3561H12.5C12.942 38.3561 13.366 38.1805 13.6785 37.868C13.9911 37.5554 14.1667 37.1315 14.1667 36.6895V34.1895H20C20.442 34.1895 20.866 34.0139 21.1785 33.7013C21.4911 33.3887 21.6667 32.9648 21.6667 32.5228C21.6667 32.0808 21.4911 31.6568 21.1785 31.3443C20.866 31.0317 20.442 30.8561 20 30.8561H14.1667V28.3561C14.1667 27.9141 13.9911 27.4902 13.6785 27.1776C13.366 26.865 12.942 26.6895 12.5 26.6895ZM10.8333 35.0228H5.83333V30.0228H10.8333V35.0228Z" fill="#6E6F7C"/>
<path d="M6.66676 15.6195V22.5228C6.66676 22.9649 6.84236 23.3888 7.15492 23.7013C7.46748 24.0139 7.8914 24.1895 8.33343 24.1895C8.77546 24.1895 9.19938 24.0139 9.51194 23.7013C9.8245 23.3888 10.0001 22.9649 10.0001 22.5228V15.6195C11.5712 15.2138 12.9404 14.2491 13.8511 12.9062C14.7618 11.5632 15.1514 9.93419 14.947 8.3245C14.7425 6.71481 13.958 5.23495 12.7405 4.1623C11.523 3.08965 9.95605 2.49786 8.33343 2.49786C6.71081 2.49786 5.14389 3.08965 3.92638 4.1623C2.70887 5.23495 1.92436 6.71481 1.7199 8.3245C1.51544 9.93419 1.90507 11.5632 2.81576 12.9062C3.72645 14.2491 5.09567 15.2138 6.66676 15.6195ZM8.33343 5.85617C8.9927 5.85617 9.63717 6.05167 10.1853 6.41794C10.7335 6.78421 11.1607 7.3048 11.413 7.91389C11.6653 8.52298 11.7313 9.1932 11.6027 9.8398C11.4741 10.4864 11.1566 11.0804 10.6905 11.5465C10.2243 12.0127 9.63034 12.3302 8.98373 12.4588C8.33713 12.5874 7.66691 12.5214 7.05782 12.2691C6.44873 12.0168 5.92814 11.5896 5.56187 11.0414C5.19559 10.4932 5.0001 9.84877 5.0001 9.1895C5.0001 8.30545 5.35129 7.4576 5.97641 6.83248C6.60153 6.20736 7.44938 5.85617 8.33343 5.85617Z" fill="#6E6F7C"/>
<path d="M33.3334 26.0928V20.8561C33.3334 20.4141 33.1578 19.9902 32.8452 19.6776C32.5326 19.365 32.1087 19.1895 31.6667 19.1895C31.2247 19.1895 30.8007 19.365 30.4882 19.6776C30.1756 19.9902 30 20.4141 30 20.8561V26.0928C28.4289 26.4984 27.0597 27.4632 26.149 28.8061C25.2383 30.1491 24.8487 31.7781 25.0532 33.3878C25.2576 34.9975 26.0421 36.4773 27.2596 37.55C28.4771 38.6226 30.0441 39.2144 31.6667 39.2144C33.2893 39.2144 34.8562 38.6226 36.0737 37.55C37.2912 36.4773 38.0758 34.9975 38.2802 33.3878C38.4847 31.7781 38.095 30.1491 37.1844 28.8061C36.2737 27.4632 34.9044 26.4984 33.3334 26.0928ZM31.6667 35.8561C31.0074 35.8561 30.3629 35.6606 29.8148 35.2944C29.2666 34.9281 28.8394 34.4075 28.5871 33.7984C28.3348 33.1893 28.2688 32.5191 28.3974 31.8725C28.526 31.2259 28.8435 30.6319 29.3097 30.1658C29.7758 29.6996 30.3698 29.3821 31.0164 29.2535C31.663 29.1249 32.3332 29.1909 32.9423 29.4432C33.5514 29.6955 34.072 30.1227 34.4382 30.6709C34.8045 31.219 35 31.8635 35 32.5228C35 33.4068 34.6488 34.2547 34.0237 34.8798C33.3986 35.5049 32.5507 35.8561 31.6667 35.8561Z" fill="#6E6F7C"/>
<path d="M27.4999 15.0228H35.8333C36.2753 15.0228 36.6992 14.8472 37.0118 14.5347C37.3243 14.2221 37.4999 13.7982 37.4999 13.3561V5.02281C37.4999 4.58078 37.3243 4.15686 37.0118 3.8443C36.6992 3.53173 36.2753 3.35614 35.8333 3.35614H27.4999C27.0579 3.35614 26.634 3.53173 26.3214 3.8443C26.0088 4.15686 25.8333 4.58078 25.8333 5.02281V7.52281H19.9999C19.5579 7.52281 19.134 7.6984 18.8214 8.01096C18.5088 8.32352 18.3333 8.74745 18.3333 9.18947C18.3333 9.6315 18.5088 10.0554 18.8214 10.368C19.134 10.6805 19.5579 10.8561 19.9999 10.8561H25.8333V13.3561C25.8333 13.7982 26.0088 14.2221 26.3214 14.5347C26.634 14.8472 27.0579 15.0228 27.4999 15.0228ZM29.1666 6.68947H34.1666V11.6895H29.1666V6.68947Z" fill="#6E6F7C"/>
</svg>
